<?xml version="1.0" standalone="no"?>
<!DOCTYPE svg PUBLIC "-//W3C//DTD SVG 20010904//EN"
 "http://www.w3.org/TR/2001/REC-SVG-20010904/DTD/svg10.dtd">
<svg version="1.0" xmlns="http://www.w3.org/2000/svg"
 width="324.000000pt" height="312.000000pt" viewBox="0 0 324.000000 312.000000"
 preserveAspectRatio="xMidYMid meet">

<g transform="translate(0.000000,312.000000) scale(0.100000,-0.100000)"
fill="#000000" stroke="none">
<path d="M1160 3058 c0 -7 -2 -87 -4 -178 -3 -91 -5 -321 -5 -512 l-1 -348
-520 0 -520 0 0 -445 0 -445 523 -2 522 -3 0 -518 0 -517 448 0 447 0 0 520 0
520 520 0 520 0 0 445 0 445 -520 0 -520 0 0 525 0 525 -445 0 c-349 0 -445
-3 -445 -12z"/>
</g>
</svg>
